<svg viewBox="0 0 800 800" preserveAspectRatio="xMidYMid meet" style="font: 10px sans-serif;" version="1.1" xmlns="http://www.w3.org/2000/svg"><g id="circle" transform="translate(400,400)"><circle r="285.7142857142857" style="fill: none;"></circle><g class="group"><title>bag:Item</title><path id="group0" d="M1.7494954273533616e-14,-285.7142857142857A285.7142857142857,285.7142857142857 0 1,1 -207.4857682377613,196.42379957635094L-190.05696370578934,179.92420041193748A261.7142857142857,261.7142857142857 0 1,0 1.6025378114556795e-14,-261.7142857142857Z" style="fill: rgb(31, 119, 180);"></path><text dy=".35em" transform="rotate(23.28439058549725)translate(287.7142857142857)">bag:Item</text></g><g class="group"><title>collectionentity:Collection</title><path id="group1" d="M-215.17465871727322,187.96946376241405A285.7142857142857,285.7142857142857 0 0,1 -274.13345880822874,-80.5201827063356L-251.1062482683375,-73.75648735900342A261.7142857142857,261.7142857142857 0 0,0 -197.09998738502227,172.18002880637127Z" style="fill: rgb(174, 199, 232);"></path><text dy=".35em" transform="rotate(167.61475430441163)translate(287.7142857142857)rotate(180)" style="text-anchor: end;">collectionentity:Collection</text></g><g class="group"><title>:Track</title><path id="group2" d="M-270.69423278551244,-91.41818964455214A285.7142857142857,285.7142857142857 0 0,1 -270.69423278551244,-91.41818964455214L-247.95591723152938,-83.73906171440976A261.7142857142857,261.7142857142857 0 0,0 -247.95591723152938,-83.73906171440976Z" style="fill: rgb(255, 127, 14);"></path><text dy=".35em" transform="rotate(198.66072743782877)translate(287.7142857142857)rotate(180)" style="text-anchor: end;">:Track</text></g><g class="group"><title>list:ListItem</title><path id="group3" d="M-266.8219537353625,-102.16994698084443A285.7142857142857,285.7142857142857 0 0,1 -266.8219537353625,-102.16994698084443L-244.40890962159204,-93.5876714344535A261.7142857142857,261.7142857142857 0 0,0 -244.40890962159204,-93.5876714344535Z" style="fill: rgb(255, 187, 120);"></path><text dy=".35em" transform="rotate(200.95255861835204)translate(287.7142857142857)rotate(180)" style="text-anchor: end;">list:ListItem</text></g><g class="group"><title>:Song</title><path id="group4" d="M-262.52281647821707,-112.75825419706027A285.7142857142857,285.7142857142857 0 0,1 -213.63849170778852,-189.71359445766052L-195.6928584043343,-173.77765252321703A261.7142857142857,261.7142857142857 0 0,0 -240.47089989404682,-103.2865608445072Z" style="fill: rgb(44, 160, 44);"></path><text dy=".35em" transform="rotate(212.4249290970884)translate(287.7142857142857)rotate(180)" style="text-anchor: end;">:Song</text></g><g class="group"><title>:Performance</title><path id="group5" d="M-205.88108337279778,-198.10510485716313A285.7142857142857,285.7142857142857 0 0,1 -175.0699986253449,-225.79448319776597L-160.36411874081594,-206.82774660915365A261.7142857142857,261.7142857142857 0 0,0 -188.58707236948274,-181.4642760491614Z" style="fill: rgb(152, 223, 138);"></path><text dy=".35em" transform="rotate(228.05452491841186)translate(287.7142857142857)rotate(180)" style="text-anchor: end;">:Performance</text></g><g class="group"><title>:Musician</title><path id="group6" d="M-165.90059025348805,-232.61480437575068A285.7142857142857,285.7142857142857 0 0,1 -97.28329414055844,-268.6421667244107L-89.11149743275153,-246.0762247195602A261.7142857142857,261.7142857142857 0 0,0 -151.96494067219507,-213.07516080818763Z" style="fill: rgb(214, 39, 40);"></path><text dy=".35em" transform="rotate(242.29837895887295)translate(287.7142857142857)rotate(180)" style="text-anchor: end;">:Musician</text></g><g class="group"><title>:Instrument</title><path id="group7" d="M-86.46265649981333,-272.3175758048308A285.7142857142857,285.7142857142857 0 0,1 -69.01128304214566,-277.2545687163718L-63.21433526660543,-253.9651849441966A261.7142857142857,261.7142857142857 0 0,0 -79.19979335382901,-249.44289943722504Z" style="fill: rgb(255, 152, 150);"></path><text dy=".35em" transform="rotate(254.20379374412886)translate(287.7142857142857)rotate(180)" style="text-anchor: end;">:Instrument</text></g><g class="group"><title>:Genre</title><path id="group8" d="M-57.86885577335276,-279.7925098938629A285.7142857142857,285.7142857142857 0 0,1 -22.832769705477478,-284.80048751503415L-20.91481705021737,-260.8772465637713A261.7142857142857,261.7142857142857 0 0,0 -53.00787188839113,-256.28993906277844Z" style="fill: rgb(148, 103, 189);"></path><text dy=".35em" transform="rotate(261.86537432549375)translate(287.7142857142857)rotate(180)" style="text-anchor: end;">:Genre</text></g><g class="group"><title>bag:Bag</title><path id="group9" d="M-11.425524053323603,-285.48574476027943A285.7142857142857,285.7142857142857 0 0,1 -11.425524053323603,-285.48574476027943L-10.46578003284442,-261.504942200416A261.7142857142857,261.7142857142857 0 0,0 -10.46578003284442,-261.504942200416Z" style="fill: rgb(197, 176, 213);"></path><text dy=".35em" transform="rotate(267.7081688194768)translate(287.7142857142857)rotate(180)" style="text-anchor: end;">bag:Bag</text></g><path class="chord" d="M-252.4027570228407,-69.18970728517078A261.7142857142857,261.7142857142857 0 0,1 -251.76485750078112,-71.47603706523019Q 0,0 -20.91481705021737,-260.8772465637713Q 0,0 -252.4027570228407,-69.18970728517078Z" style="fill: rgb(148, 103, 189); fill-opacity: 0.67; stroke: rgb(0, 0, 0); stroke-width: 0.25px; cursor: pointer;"></path><path class="chord" d="M-251.76485750078112,-71.47603706523019A261.7142857142857,261.7142857142857 0 0,1 -251.1062482683375,-73.75648735900342Q 0,0 -10.46578003284442,-261.504942200416Q 0,0 -251.76485750078112,-71.47603706523019Z" style="fill: rgb(197, 176, 213); fill-opacity: 0.67; stroke: rgb(0, 0, 0); stroke-width: 0.25px; cursor: pointer;"></path><path class="chord" d="M-91.33962914566554,-245.25790404076903A261.7142857142857,261.7142857142857 0 0,1 -89.11149743275153,-246.0762247195602Q 0,0 -10.46578003284442,-261.504942200416Q 0,0 -91.33962914566554,-245.25790404076903Z" style="fill: rgb(197, 176, 213); fill-opacity: 0.67; stroke: rgb(0, 0, 0); stroke-width: 0.25px; cursor: pointer;"></path><path class="chord" d="M-97.97821369045131,-242.6821727877164A261.7142857142857,261.7142857142857 0 0,1 -91.33962914566554,-245.25790404076903Q 0,0 -20.91481705021737,-260.8772465637713Q 0,0 -97.97821369045131,-242.6821727877164Z" style="fill: rgb(148, 103, 189); fill-opacity: 0.67; stroke: rgb(0, 0, 0); stroke-width: 0.25px; cursor: pointer;"></path><path class="chord" d="M-253.6162187539387,-64.60016201135323A261.7142857142857,261.7142857142857 0 0,1 -252.4027570228407,-69.18970728517078Q 0,0 -253.6162187539387,-64.60016201135323Z" style="fill: rgb(174, 199, 232); fill-opacity: 0.67; stroke: rgb(0, 0, 0); stroke-width: 0.25px; cursor: pointer;"></path><path class="chord" d="M-255.2798323040187,-57.67646457413006A261.7142857142857,261.7142857142857 0 0,1 -253.6162187539387,-64.60016201135323Q 0,0 -165.93163824218928,-202.3883859741018A261.7142857142857,261.7142857142857 0 0,1 -160.36411874081594,-206.82774660915365Q 0,0 -255.2798323040187,-57.67646457413006Z" style="fill: rgb(152, 223, 138); fill-opacity: 0.67; stroke: rgb(0, 0, 0); stroke-width: 0.25px; cursor: pointer;"></path><path class="chord" d="M-174.93587354809748,-194.65818116098495A261.7142857142857,261.7142857142857 0 0,1 -165.93163824218928,-202.3883859741018Q 0,0 -108.87893729876617,-237.99105941112603A261.7142857142857,261.7142857142857 0 0,1 -97.97821369045131,-242.6821727877164Q 0,0 -174.93587354809748,-194.65818116098495Z" style="fill: rgb(214, 39, 40); fill-opacity: 0.67; stroke: rgb(0, 0, 0); stroke-width: 0.25px; cursor: pointer;"></path><path class="chord" d="M-258.2985780334816,-42.14512940803719A261.7142857142857,261.7142857142857 0 0,1 -255.2798323040187,-57.67646457413006Q 0,0 -205.83620526808522,-161.63484756627656A261.7142857142857,261.7142857142857 0 0,1 -195.6928584043343,-173.77765252321703Q 0,0 -258.2985780334816,-42.14512940803719Z" style="fill: rgb(44, 160, 44); fill-opacity: 0.67; stroke: rgb(0, 0, 0); stroke-width: 0.25px; cursor: pointer;"></path><path class="chord" d="M-260.4520902973454,-25.672475663289955A261.7142857142857,261.7142857142857 0 0,1 -258.2985780334816,-42.14512940803719Q 0,0 -151.96494067219507,-213.07516080818763A261.7142857142857,261.7142857142857 0 0,1 -138.1402355322764,-222.287297599359Q 0,0 -260.4520902973454,-25.672475663289955Z" style="fill: rgb(214, 39, 40); fill-opacity: 0.67; stroke: rgb(0, 0, 0); stroke-width: 0.25px; cursor: pointer;"></path><path class="chord" d="M-215.67643305888507,-148.24993615491053A261.7142857142857,261.7142857142857 0 0,1 -205.83620526808522,-161.63484756627656Q 0,0 -138.1402355322764,-222.287297599359A261.7142857142857,261.7142857142857 0 0,1 -123.75891875050178,-230.60376704782055Q 0,0 -215.67643305888507,-148.24993615491053Z" style="fill: rgb(214, 39, 40); fill-opacity: 0.67; stroke: rgb(0, 0, 0); stroke-width: 0.25px; cursor: pointer;"></path><path class="chord" d="M-123.75891875050178,-230.60376704782055A261.7142857142857,261.7142857142857 0 0,1 -108.87893729876617,-237.99105941112603Q 0,0 -79.19979335382901,-249.44289943722504A261.7142857142857,261.7142857142857 0 0,1 -63.21433526660543,-253.9651849441966Q 0,0 -123.75891875050178,-230.60376704782055Z" style="fill: rgb(255, 152, 150); fill-opacity: 0.67; stroke: rgb(0, 0, 0); stroke-width: 0.25px; cursor: pointer;"></path><path class="chord" d="M-225.85613659104098,-132.22470612978432A261.7142857142857,261.7142857142857 0 0,1 -215.67643305888507,-148.24993615491053Q 0,0 -188.58707236948274,-181.4642760491614A261.7142857142857,261.7142857142857 0 0,1 -174.93587354809748,-194.65818116098495Q 0,0 -225.85613659104098,-132.22470612978432Z" style="fill: rgb(152, 223, 138); fill-opacity: 0.67; stroke: rgb(0, 0, 0); stroke-width: 0.25px; cursor: pointer;"></path><path class="chord" d="M-142.7611625551013,219.34816573852336A261.7142857142857,261.7142857142857 0 0,1 -190.05696370578934,179.92420041193748Q 0,0 -195.6928584043343,-173.77765252321703Q 0,0 -142.7611625551013,219.34816573852336Z" style="fill: rgb(44, 160, 44); fill-opacity: 0.67; stroke: rgb(0, 0, 0); stroke-width: 0.25px; cursor: pointer;"></path><path class="chord" d="M-240.47089989404682,-103.2865608445072A261.7142857142857,261.7142857142857 0 0,1 -225.85613659104098,-132.22470612978432Q 0,0 -53.00787188839113,-256.28993906277844A261.7142857142857,261.7142857142857 0 0,1 -20.91481705021737,-260.8772465637713Q 0,0 -240.47089989404682,-103.2865608445072Z" style="fill: rgb(148, 103, 189); fill-opacity: 0.67; stroke: rgb(0, 0, 0); stroke-width: 0.25px; cursor: pointer;"></path><path class="chord" d="M-78.56047543296232,249.6449860235244A261.7142857142857,261.7142857142857 0 0,1 -142.7611625551013,219.34816573852336Q 0,0 -10.46578003284442,-261.504942200416Q 0,0 -78.56047543296232,249.6449860235244Z" style="fill: rgb(197, 176, 213); fill-opacity: 0.67; stroke: rgb(0, 0, 0); stroke-width: 0.25px; cursor: pointer;"></path><path class="chord" d="M-236.12145770908916,112.87614697655836A261.7142857142857,261.7142857142857 0 0,1 -257.769766174729,45.267151370108515Q 0,0 -247.95591723152938,-83.73906171440976Q 0,0 -236.12145770908916,112.87614697655836Z" style="fill: rgb(255, 127, 14); fill-opacity: 0.67; stroke: rgb(0, 0, 0); stroke-width: 0.25px; cursor: pointer;"></path><path class="chord" d="M-257.769766174729,45.267151370108515A261.7142857142857,261.7142857142857 0 0,1 -260.4520902973454,-25.672475663289955Q 0,0 -244.40890962159204,-93.5876714344535Q 0,0 -257.769766174729,45.267151370108515Z" style="fill: rgb(255, 187, 120); fill-opacity: 0.67; stroke: rgb(0, 0, 0); stroke-width: 0.25px; cursor: pointer;"></path><path class="chord" d="M-8.579526454853568,261.57362075092595A261.7142857142857,261.7142857142857 0 0,1 -78.56047543296232,249.6449860235244Q 0,0 -197.09998738502227,172.18002880637127A261.7142857142857,261.7142857142857 0 0,1 -236.12145770908916,112.87614697655836Q 0,0 -8.579526454853568,261.57362075092595Z" style="fill: rgb(174, 199, 232); fill-opacity: 0.67; stroke: rgb(0, 0, 0); stroke-width: 0.25px; cursor: pointer;"></path><path class="chord" d="M228.067832232655,-128.37223705940588A261.7142857142857,261.7142857142857 0 0,1 223.73694844428647,135.7797674463227Q 0,0 -247.95591723152938,-83.73906171440976Q 0,0 228.067832232655,-128.37223705940588Z" style="fill: rgb(255, 127, 14); fill-opacity: 0.67; stroke: rgb(0, 0, 0); stroke-width: 0.25px; cursor: pointer;"></path><path class="chord" d="M223.73694844428647,135.7797674463227A261.7142857142857,261.7142857142857 0 0,1 -8.579526454853568,261.57362075092595Q 0,0 -244.40890962159204,-93.5876714344535Q 0,0 223.73694844428647,135.7797674463227Z" style="fill: rgb(255, 187, 120); fill-opacity: 0.67; stroke: rgb(0, 0, 0); stroke-width: 0.25px; cursor: pointer;"></path><path class="chord" d="M1.6025378114556795e-14,-261.7142857142857A261.7142857142857,261.7142857142857 0 0,1 228.067832232655,-128.37223705940588Q 0,0 1.6025378114556795e-14,-261.7142857142857Z" style="fill: rgb(31, 119, 180); fill-opacity: 0.67; stroke: rgb(0, 0, 0); stroke-width: 0.25px; cursor: pointer;"></path></g></svg>